<svg xmlns="http://www.w3.org/2000/svg" viewBox="0 0 100 800" width="600px"
    height="600px">
    <defs>
        <style>.a{fill:#1d1d1b;}</style>
    </defs>
    <g transform="translate(0, 30)">
        <g>
            <animateTransform attributeType="xml" attributeName="transform" type="rotate" from="0 70 130"
            to="360 70 130" dur="2s" repeatCount="indefinite" />
            <path class="a"
                d="M41.71,41.38q-1.32,25.34-1.26,50.69T42,142.75q1.44,25.32,4.26,50.53t7,50.4c1.11,6.71,1.89,13.68,4.49,20,2.14,5.21,5.53,10.55,11.23,12.25,6.3,1.89,12.06-1.61,15.73-6.54,4.15-5.59,6.17-12.78,8-19.39,4.3-15.38,6-31.38,6.7-47.29.72-16.37.55-32.78.64-49.16l.26-51.67.26-51.67.06-12.73c0-3.21-5-3.22-5,0l-.25,50.42-.26,50.42c-.08,16.52,0,33-.3,49.56-.23,15.46-.89,31-3.63,46.26a147.92,147.92,0,0,1-5.76,22.43c-1.77,5.08-4.14,11.24-9.16,13.94-4.43,2.39-8.75,0-11.31-3.73-3.24-4.75-4.46-10.44-5.44-16q-4.31-24.39-7.29-49t-4.64-49.27q-1.66-24.67-2-49.43t.61-49.48q.24-6.12.56-12.24c.16-3.21-4.84-3.2-5,0Z" />
            <path class="a"
                d="M45.3,42.09a66.67,66.67,0,0,1-28.52-6A66.79,66.79,0,0,1,10.2,32.6c-1.66-1-3.72-2.09-4.7-3.84-1.93-3.48,2.06-7,4.66-8.78a62.59,62.59,0,0,1,12.91-6.33A105.36,105.36,0,0,1,37.33,9.48,199.66,199.66,0,0,1,66.87,5.64c20.12-1.39,40.89-1,60.05,6,3.31,1.2,9,2.55,8.67,7-.3,3.91-3.55,7.27-6.42,9.62-6.32,5.16-14.85,7.1-22.73,8.31a289,289,0,0,1-31.23,2.74q-16.75.72-33.52,0-4.2-.2-8.37-.48a2.5,2.5,0,0,0,0,5,360.54,360.54,0,0,0,70.82-1.89c9-1.16,18.3-3,25.91-8.12,3.72-2.51,7.31-5.88,9.19-10a12.62,12.62,0,0,0,1.17-7.59,9.22,9.22,0,0,0-4.26-5.91A37,37,0,0,0,128.88,7c-2.51-.94-5.07-1.77-7.65-2.5a116.37,116.37,0,0,0-16-3.22,181.16,181.16,0,0,0-32.93-1C51.16,1.39,28.85,3.67,10.07,14.2,6,16.48,1.56,19.79.3,24.55A8.84,8.84,0,0,0,1.38,31.6a17.39,17.39,0,0,0,5.73,5A72,72,0,0,0,37.42,46.74a69.15,69.15,0,0,0,7.88.35c3.22,0,3.23-5,0-5Z" />
            <path class="a"
                d="M44.17,65.46a169.79,169.79,0,0,1,54.14-8.82c3.22,0,3.22-5,0-5a174.33,174.33,0,0,0-55.47,9c-3,1-1.73,5.85,1.33,4.82Z" />
            <path class="a"
                d="M44,75.76c4.14,1.86,8.44,1.48,12.77.53,4.5-1,9-2.12,13.46-3.19L97.9,66.52c3.13-.74,1.8-5.56-1.33-4.82L70.36,67.94,57.37,71c-3.4.81-7.47,1.93-10.84.43a2.58,2.58,0,0,0-3.42.89,2.52,2.52,0,0,0,.9,3.42Z" />
            <path class="a"
                d="M42.32,89.22a351.9,351.9,0,0,0,54.62-6.49,2.53,2.53,0,0,0,1.75-3.08,2.56,2.56,0,0,0-3.08-1.75,342.2,342.2,0,0,1-53.29,6.32c-3.21.13-3.22,5.13,0,5Z" />
            <path class="a"
                d="M47.29,102.66Q70.75,100.83,94,97.3a2.5,2.5,0,0,0-1.33-4.82q-22.6,3.42-45.42,5.18a2.55,2.55,0,0,0-2.5,2.5,2.52,2.52,0,0,0,2.5,2.5Z" />
            <path class="a"
                d="M44.72,116.19A68.59,68.59,0,0,1,57.12,114c4.48-.48,9-.93,13.43-1.39l26.79-2.75a2.57,2.57,0,0,0,2.5-2.5,2.52,2.52,0,0,0-2.5-2.5l-27.28,2.8c-4.47.46-8.94.9-13.41,1.39a74.42,74.42,0,0,0-13.26,2.35c-3.08.92-1.77,5.74,1.33,4.82Z" />
            <path class="a"
                d="M44.31,128l49-5.34a2.57,2.57,0,0,0,2.5-2.5,2.51,2.51,0,0,0-2.5-2.5l-49,5.34a2.57,2.57,0,0,0-2.5,2.5,2.51,2.51,0,0,0,2.5,2.5Z" />
            <path class="a"
                d="M44.77,141.14A229.43,229.43,0,0,1,95.31,133c3.21-.15,3.22-5.15,0-5a235.43,235.43,0,0,0-51.87,8.31c-3.1.86-1.78,5.68,1.33,4.82Z" />
            <path class="a"
                d="M46.33,152.17a367.69,367.69,0,0,0,48.73-9c3.11-.79,1.79-5.62-1.33-4.82a357.83,357.83,0,0,1-47.4,8.78,2.58,2.58,0,0,0-2.5,2.5,2.51,2.51,0,0,0,2.5,2.5Z" />
            <path class="a"
                d="M48,163.11l46.91-7.56a2.52,2.52,0,0,0,1.75-3.08,2.56,2.56,0,0,0-3.08-1.74l-46.91,7.55a2.53,2.53,0,0,0-1.74,3.08A2.56,2.56,0,0,0,48,163.11Z" />
            <path class="a"
                d="M48.74,174a187.68,187.68,0,0,1,47.57-6.27c3.22,0,3.23-5,0-5a193.59,193.59,0,0,0-48.9,6.45c-3.11.82-1.79,5.65,1.33,4.82Z" />
            <path class="a"
                d="M48.3,186.8a371.93,371.93,0,0,0,45.8-6.33,2.52,2.52,0,0,0,1.74-3.07,2.55,2.55,0,0,0-3.07-1.75A360.22,360.22,0,0,1,48.3,181.8a2.56,2.56,0,0,0-2.5,2.5,2.51,2.51,0,0,0,2.5,2.5Z" />
            <path class="a"
                d="M48.28,199.73Q71.82,197,95,192.14a2.53,2.53,0,0,0,1.75-3.07,2.55,2.55,0,0,0-3.08-1.75Q71.17,192,48.28,194.73a2.58,2.58,0,0,0-2.5,2.5,2.51,2.51,0,0,0,2.5,2.5Z" />
            <path class="a"
                d="M52,211.89Q74,207.6,96.32,205a2.57,2.57,0,0,0,2.5-2.5,2.52,2.52,0,0,0-2.5-2.5q-23,2.63-45.67,7a2.51,2.51,0,0,0-1.75,3.07A2.55,2.55,0,0,0,52,211.89Z" />
            <path class="a"
                d="M53.33,226.22q20.4-1.4,40.66-4.2a2.53,2.53,0,0,0,1.75-3.08,2.56,2.56,0,0,0-3.08-1.74q-19.57,2.7-39.33,4a2.55,2.55,0,0,0-2.5,2.5,2.52,2.52,0,0,0,2.5,2.5Z" />
            <path class="a"
                d="M57,238.11q16.81-3.92,33.92-6.4a2.53,2.53,0,0,0,1.75-3.08,2.58,2.58,0,0,0-3.08-1.75q-17.09,2.49-33.92,6.41c-3.13.73-1.81,5.55,1.33,4.82Z" />
            <path class="a"
                d="M59.33,249.27A216.82,216.82,0,0,0,88,245.07c3.14-.68,1.81-5.5-1.33-4.82a205.29,205.29,0,0,1-27.36,4,2.57,2.57,0,0,0-2.5,2.5,2.51,2.51,0,0,0,2.5,2.5Z" />
            <path class="a"
                d="M62.09,262.56l22.85-3.86a2.51,2.51,0,0,0,1.75-3.07,2.55,2.55,0,0,0-3.07-1.75l-22.86,3.86A2.52,2.52,0,0,0,59,260.81a2.57,2.57,0,0,0,3.08,1.75Z" />
        </g>
    </g>
</svg>